<svg width="48" height="48" fill="none" xmlns="http://www.w3.org/2000/svg"><path d="M12.495 36.914 15.952 39l19.592-27.513L32.24 9 12.495 36.914ZM8 17.142c0 4.17 3.188 7.099 7.376 7.099 4.187 0 7.337-2.928 7.337-7.1 0-4.21-3.15-7.138-7.337-7.138C11.188 10.003 8 12.93 8 17.142Zm4.34 0c0-1.965 1.422-3.249 3.036-3.249 1.613 0 2.996 1.284 2.996 3.249 0 2.005-1.344 3.288-2.996 3.288-1.575 0-3.035-1.283-3.035-3.288Zm12.947 14.077c0 4.171 3.188 7.14 7.376 7.14 4.149 0 7.337-2.969 7.337-7.14 0-4.211-3.188-7.099-7.337-7.099-4.188 0-7.376 2.888-7.376 7.1Zm4.34 0c0-2.005 1.422-3.289 3.036-3.289 1.575 0 2.996 1.284 2.996 3.29 0 1.965-1.383 3.248-2.996 3.248-1.575 0-3.035-1.284-3.035-3.249Z" fill="#005975"/></svg>