<svg width="25" height="24" fill="none" xmlns="http://www.w3.org/2000/svg"><path fill-rule="evenodd" clip-rule="evenodd" d="M6.5 10a6 6 0 1 1 12 0c0 .493-.164 1.155-.505 1.962-.335.794-.81 1.659-1.362 2.538-1.104 1.759-2.467 3.497-3.478 4.713-.35.421-.96.421-1.31 0-1.011-1.216-2.374-2.954-3.478-4.713-.552-.88-1.028-1.744-1.362-2.538-.34-.807-.505-1.469-.505-1.962Zm6-8a8 8 0 0 0-8 8c0 .88.277 1.827.662 2.74.391.926.926 1.891 1.511 2.824 1.172 1.866 2.598 3.681 3.633 4.927a2.838 2.838 0 0 0 4.388 0c1.035-1.246 2.46-3.061 3.632-4.927.586-.933 1.121-1.898 1.512-2.824.385-.913.662-1.86.662-2.74a8 8 0 0 0-8-8Zm-2 8a2 2 0 1 1 4 0 2 2 0 0 1-4 0Zm2-4a4 4 0 1 0 0 8 4 4 0 0 0 0-8Z" fill="#fff"/></svg>