<svg width="150" height="27" fill="none" xmlns="http://www.w3.org/2000/svg"><path d="M.82 1.4h14.756v4.06H5.16v3.192h4.928c2.128 0 3.799.495 5.012 1.484 1.213.97 1.82 2.492 1.82 4.564 0 4.2-2.716 6.3-8.148 6.3H.82V1.4Zm8.288 11.312H5.16v4.228h3.78c.467 0 .868-.019 1.204-.056.355-.056.719-.15 1.092-.28.373-.15.663-.383.868-.7.205-.317.308-.71.308-1.176 0-.448-.103-.812-.308-1.092-.187-.299-.467-.504-.84-.616a4.42 4.42 0 0 0-1.008-.252c-.317-.037-.7-.056-1.148-.056Zm11.79-1.4-1.933-2.94c.71-.765 1.652-1.325 2.828-1.68 1.195-.373 2.39-.56 3.584-.56 1.885 0 3.35.532 4.396 1.596 1.045 1.064 1.568 2.548 1.568 4.452V21h-4.06v-1.316c-.41.467-.999.83-1.764 1.092-.747.261-1.465.392-2.156.392-1.53 0-2.8-.42-3.808-1.26-1.008-.84-1.512-2.007-1.512-3.5 0-1.139.355-2.081 1.064-2.828.71-.747 1.53-1.26 2.464-1.54.952-.28 1.979-.42 3.08-.42s1.979.121 2.632.364c.037-.71-.15-1.232-.56-1.568-.43-.336-1.027-.504-1.792-.504-1.363 0-2.707.467-4.032 1.4Zm3.303 6.356c.616 0 1.213-.15 1.792-.448.597-.299 1.027-.7 1.288-1.204v-.672c-.653-.243-1.39-.364-2.212-.364-.635 0-1.176.056-1.624.168-.803.261-1.204.681-1.204 1.26 0 .448.196.775.588.98.41.187.868.28 1.372.28ZM37.843 26.6h-4.06V6.44h4.06v.756c.355-.336.85-.597 1.484-.784.635-.187 1.223-.28 1.764-.28 2.184 0 3.92.69 5.208 2.072 1.307 1.381 1.96 3.145 1.96 5.292 0 2.221-.672 4.07-2.016 5.544-1.344 1.456-3.098 2.184-5.264 2.184-1.717 0-2.762-.243-3.136-.728V26.6Zm2.8-16.688c-1.25 0-2.184.55-2.8 1.652v4.648c.224.373.588.672 1.092.896.504.224 1 .336 1.484.336 1.102 0 1.98-.327 2.632-.98.672-.672 1.008-1.559 1.008-2.66 0-1.195-.28-2.137-.84-2.828-.56-.71-1.418-1.064-2.576-1.064ZM62.988.196l.7 3.668c-.933.43-2.118.728-3.556.896-1.586.205-2.548.355-2.884.448-2.501.616-3.873 2.007-4.116 4.172 1.139-1.4 2.847-2.1 5.124-2.1 1.998 0 3.594.607 4.788 1.82 1.214 1.195 1.82 2.772 1.82 4.732 0 2.259-.681 4.07-2.044 5.432-1.362 1.344-3.145 2.016-5.348 2.016-2.557 0-4.526-.812-5.908-2.436-1.362-1.643-2.044-3.743-2.044-6.3 0-3.472.691-6.113 2.072-7.924 1.4-1.83 3.715-2.959 6.944-3.388 1.699-.224 2.8-.42 3.304-.588.411-.112.794-.261 1.148-.448Zm-9.268 13.02v.448c0 1.027.364 1.923 1.092 2.688.747.765 1.624 1.148 2.632 1.148 1.046 0 1.839-.299 2.38-.896.56-.616.84-1.456.84-2.52 0-.97-.28-1.717-.84-2.24-.56-.523-1.325-.784-2.296-.784-1.773 0-3.042.719-3.808 2.156Zm23.962 2.632 2.436 2.464c-1.55 1.941-3.64 2.912-6.272 2.912-2.333 0-4.228-.69-5.684-2.072-1.456-1.381-2.184-3.201-2.184-5.46 0-2.296.69-4.125 2.072-5.488 1.4-1.381 3.23-2.072 5.488-2.072 2.035 0 3.696.616 4.984 1.848 1.307 1.232 1.96 2.847 1.96 4.844 0 .523-.075 1.307-.224 2.352H70.234a2.547 2.547 0 0 0 1.316 1.708c.69.373 1.475.56 2.352.56 1.643 0 2.903-.532 3.78-1.596Zm-4.284-6.076c-1.55 0-2.576.635-3.08 1.904h5.964c-.336-1.27-1.297-1.904-2.884-1.904ZM86.351 26.6h-4.06V6.44h4.06v.756c.355-.336.85-.597 1.484-.784.635-.187 1.223-.28 1.764-.28 2.184 0 3.92.69 5.208 2.072 1.307 1.381 1.96 3.145 1.96 5.292 0 2.221-.672 4.07-2.016 5.544-1.344 1.456-3.098 2.184-5.264 2.184-1.717 0-2.762-.243-3.136-.728V26.6Zm2.8-16.688c-1.25 0-2.184.55-2.8 1.652v4.648c.224.373.588.672 1.092.896.504.224.999.336 1.484.336 1.102 0 1.979-.327 2.632-.98.672-.672 1.008-1.559 1.008-2.66 0-1.195-.28-2.137-.84-2.828-.56-.71-1.418-1.064-2.576-1.064ZM117.04 21H98.588V6.44h4.06v10.78h3.136V6.44h4.06v10.78h3.136V6.44h4.06V21Zm1.821-7.308c0-2.24.756-4.06 2.268-5.46 1.512-1.4 3.378-2.1 5.6-2.1 2.258 0 4.144.71 5.656 2.128 1.512 1.4 2.268 3.21 2.268 5.432 0 2.24-.766 4.06-2.296 5.46-1.531 1.381-3.407 2.072-5.628 2.072-2.222 0-4.088-.71-5.6-2.128-1.512-1.419-2.268-3.22-2.268-5.404Zm4.2 0c0 1.064.345 1.96 1.036 2.688.709.71 1.586 1.064 2.632 1.064 1.12 0 2.016-.345 2.688-1.036.69-.69 1.036-1.596 1.036-2.716 0-1.101-.346-2.007-1.036-2.716-.691-.71-1.587-1.064-2.688-1.064-1.102 0-1.988.355-2.66 1.064-.672.71-1.008 1.615-1.008 2.716ZM149.983 21h-4.06V10.22h-5.404V21h-4.06V6.44h13.524V21Z" fill="#000"/></svg>