<svg width="24" height="24" fill="none" xmlns="http://www.w3.org/2000/svg"><path d="M23.057 19.302h-2.62c-.992 0-1.298-.789-3.08-2.595-1.552-1.502-2.24-1.705-2.62-1.705-.536 0-.689.153-.689.891v2.366c0 .637-.203 1.019-1.882 1.019-2.774 0-5.854-1.68-8.016-4.81C.892 9.887 0 6.45 0 5.738c0-.381.153-.737.891-.737h2.62c.661 0 .917.304 1.172 1.017 1.297 3.74 3.46 7.024 4.351 7.024.33 0 .484-.153.484-.992v-3.87c-.102-1.782-1.044-1.934-1.044-2.57 0-.306.255-.611.661-.611h4.123c.56 0 .763.305.763.966v5.218c0 .56.255.764.407.764.33 0 .612-.205 1.222-.815 1.884-2.112 3.232-5.37 3.232-5.37.178-.381.483-.737 1.146-.737h2.62c.79 0 .968.405.79.966-.331 1.528-3.538 6.056-3.538 6.056-.28.458-.381.661 0 1.172.28.382 1.196 1.17 1.808 1.883 1.12 1.272 1.983 2.34 2.213 3.08.255.736-.128 1.118-.866 1.118l.002.001Z" fill="#fff"/></svg>